<svg width="24" height="24" viewBox="0 0 24 24" fill="black" xmlns="http://www.w3.org/2000/svg">
<path fill-rule="evenodd" clip-rule="evenodd" d="M10.5 7.75C10.5 7.61193 10.6119 7.5 10.75 7.5H16.25C16.3881 7.5 16.5 7.61193 16.5 7.75V13.25C16.5 13.3881 16.3881 13.5 16.25 13.5H10.75C10.6119 13.5 10.5 13.3881 10.5 13.25V7.75ZM9.25 15C9.11193 15 9 14.8881 9 14.75V6.25C9 6.11193 9.11193 6 9.25 6H17.75C17.8881 6 18 6.11193 18 6.25V14.75C18 14.8881 17.8881 15 17.75 15H9.25ZM6 9.25C6 9.11193 6.11193 9 6.25 9H7.25C7.38807 9 7.5 9.11193 7.5 9.25V16.25C7.5 16.3881 7.61193 16.5 7.75 16.5H14.75C14.8881 16.5 15 16.6119 15 16.75V17.75C15 17.8881 14.8881 18 14.75 18H6.25C6.11193 18 6 17.8881 6 17.75V9.25Z"/>
</svg>
