<svg width="24" height="24" viewBox="0 0 24 24" fill="black" xmlns="http://www.w3.org/2000/svg">
<path fill-rule="evenodd" clip-rule="evenodd" d="M7.07322 12.2552C6.97559 12.1576 6.97559 11.9993 7.07322 11.9016L7.95711 11.0178L10.9623 8.01256C11.0599 7.91493 11.2182 7.91493 11.3159 8.01256L12.023 8.71967C12.1206 8.8173 12.1206 8.97559 12.023 9.07322L10.1161 10.9801C9.95863 11.1376 10.0702 11.4069 10.2929 11.4069L17.4749 11.4069C17.613 11.4069 17.7249 11.5188 17.7249 11.6569L17.7249 12.6569C17.7249 12.7949 17.613 12.9069 17.4749 12.9069L10.4497 12.9069C10.227 12.9069 10.1155 13.1761 10.273 13.3336L12.023 15.0836C12.1206 15.1813 12.1206 15.3396 12.023 15.4372L11.3159 16.1443C11.2182 16.2419 11.0599 16.2419 10.9623 16.1443L7.07322 12.2552Z"/>
</svg>
