<svg width="24" height="24" viewBox="0 0 24 24" fill="black" xmlns="http://www.w3.org/2000/svg">
<path fill-rule="evenodd" clip-rule="evenodd" d="M11.5 4.25C11.5 4.11193 11.6119 4 11.75 4H12.75C12.8881 4 13 4.11193 13 4.25V5.75C13 5.88807 13.1119 6 13.25 6H14.75C14.8881 6 15 5.88807 15 5.75V4.25C15 4.11193 15.1119 4 15.25 4H16.25C16.3881 4 16.5 4.11193 16.5 4.25V5.75C16.5 5.88807 16.6119 6 16.75 6H17.75C17.8881 6 18 6.11193 18 6.25V10C18 11.8809 16.7017 13.4587 14.9524 13.8859C14.8357 13.9144 14.75 14.0167 14.75 14.1368V17C14.75 18.5188 13.5188 19.75 12 19.75C10.4812 19.75 9.25 18.5188 9.25 17V16C9.25 15.3096 8.69036 14.75 8 14.75C7.30964 14.75 6.75 15.3096 6.75 16V19.75C6.75 19.8881 6.63807 20 6.5 20H5.5C5.36193 20 5.25 19.8881 5.25 19.75V16C5.25 14.4812 6.48122 13.25 8 13.25C9.51878 13.25 10.75 14.4812 10.75 16V17C10.75 17.6904 11.3096 18.25 12 18.25C12.6904 18.25 13.25 17.6904 13.25 17V14.1368C13.25 14.0167 13.1643 13.9144 13.0476 13.8859C11.2983 13.4587 10 11.8809 10 10V6.25C10 6.11193 10.1119 6 10.25 6H11.25C11.3881 6 11.5 5.88807 11.5 5.75V4.25ZM11.5 7.75C11.5 7.61193 11.6119 7.5 11.75 7.5H16.25C16.3881 7.5 16.5 7.61193 16.5 7.75V10C16.5 11.3807 15.3807 12.5 14 12.5C12.6193 12.5 11.5 11.3807 11.5 10V7.75Z"/>
</svg>
