<svg width="24" height="24" viewBox="0 0 24 24" fill="none" xmlns="http://www.w3.org/2000/svg">
<path fill-rule="evenodd" clip-rule="evenodd" d="M7.5 17.534C7.5 17.3959 7.61193 17.284 7.75 17.284L16.25 17.284C16.3881 17.284 16.5 17.3959 16.5 17.534L16.5 18.534C16.5 18.6721 16.3881 18.784 16.25 18.784L7.75 18.784C7.61193 18.784 7.5 18.6721 7.5 18.534L7.5 17.534ZM11.25 12.432C11.25 12.6547 10.9807 12.7663 10.8232 12.6088L8.91637 10.7019C8.81874 10.6043 8.66044 10.6043 8.56281 10.7019L7.85571 11.409C7.75807 11.5066 7.75807 11.6649 7.85571 11.7626L10.8609 14.7678L11.7448 15.6517C11.8424 15.7493 12.0007 15.7493 12.0983 15.6517L15.9874 11.7626C16.0851 11.6649 16.0851 11.5067 15.9874 11.409L15.2803 10.7019C15.1827 10.6043 15.0244 10.6043 14.9268 10.7019L13.1768 12.4519C13.0193 12.6094 12.75 12.4979 12.75 12.2751L12.75 5.25C12.75 5.11193 12.6381 5 12.5 5L11.5 5C11.3619 5 11.25 5.11193 11.25 5.25L11.25 12.432Z" />
</svg>
