<svg width="24" height="24" viewBox="0 0 24 24" fill="black" xmlns="http://www.w3.org/2000/svg">
<path fill-rule="evenodd" clip-rule="evenodd" d="M15.5 7H13.25C13.1119 7 13 7.11193 13 7.25V8.25C13 8.38807 13.1119 8.5 13.25 8.5H15.25C15.3881 8.5 15.5 8.61193 15.5 8.75V10.75C15.5 10.8881 15.6119 11 15.75 11H16.75C16.8881 11 17 10.8881 17 10.75V8.5V7.25C17 7.11193 16.8881 7 16.75 7H15.5ZM10 10.25C10 10.1119 10.1119 10 10.25 10H13.75C13.8881 10 14 10.1119 14 10.25V13.75C14 13.8881 13.8881 14 13.75 14H10.25C10.1119 14 10 13.8881 10 13.75V10.25ZM11 16.75C11 16.8881 10.8881 17 10.75 17H8.5H7.25C7.11193 17 7 16.8881 7 16.75V15.5V13.25C7 13.1119 7.11193 13 7.25 13H8.25C8.38807 13 8.5 13.1119 8.5 13.25L8.5 15.25C8.5 15.3881 8.61193 15.5 8.75 15.5H10.75C10.8881 15.5 11 15.6119 11 15.75V16.75ZM7 8.5V10.75C7 10.8881 7.11193 11 7.25 11H8.25C8.38807 11 8.5 10.8881 8.5 10.75L8.5 8.75C8.5 8.61193 8.61193 8.5 8.75 8.5L10.75 8.5C10.8881 8.5 11 8.38807 11 8.25L11 7.25C11 7.11193 10.8881 7 10.75 7H8.5H7.25C7.11193 7 7 7.11193 7 7.25V8.5ZM16.75 13C16.8881 13 17 13.1119 17 13.25V15.5V16.75C17 16.8881 16.8881 17 16.75 17H15.5H13.25C13.1119 17 13 16.8881 13 16.75V15.75C13 15.6119 13.1119 15.5 13.25 15.5H15.25C15.3881 15.5 15.5 15.3881 15.5 15.25V13.25C15.5 13.1119 15.6119 13 15.75 13H16.75Z"/>
</svg>
