<svg width="24" height="24" viewBox="0 0 24 24" fill="black" xmlns="http://www.w3.org/2000/svg">
<path fill-rule="evenodd" clip-rule="evenodd" d="M10.75 7C10.8881 7 11 7.11193 11 7.25V9.5V10.75C11 10.8881 10.8881 11 10.75 11H9.5L7.25 11C7.11193 11 7 10.8881 7 10.75V9.75C7 9.61193 7.11193 9.5 7.25 9.5L9.25 9.5C9.38807 9.5 9.5 9.38807 9.5 9.25V7.25C9.5 7.11193 9.61193 7 9.75 7H10.75ZM13.25 17C13.1119 17 13 16.8881 13 16.75V14.5L13 13.25C13 13.1119 13.1119 13 13.25 13H14.5L16.75 13C16.8881 13 17 13.1119 17 13.25L17 14.25C17 14.3881 16.8881 14.5 16.75 14.5L14.75 14.5C14.6119 14.5 14.5 14.6119 14.5 14.75V16.75C14.5 16.8881 14.3881 17 14.25 17H13.25ZM14.5 11L16.75 11C16.8881 11 17 10.8881 17 10.75V9.75C17 9.61193 16.8881 9.5 16.75 9.5L14.75 9.5C14.6119 9.5 14.5 9.38807 14.5 9.25L14.5 7.25C14.5 7.11193 14.3881 7 14.25 7H13.25C13.1119 7 13 7.11193 13 7.25L13 9.5V10.75C13 10.8881 13.1119 11 13.25 11H14.5ZM7 13.25C7 13.1119 7.11193 13 7.25 13L9.5 13H10.75C10.8881 13 11 13.1119 11 13.25L11 14.5L11 16.75C11 16.8881 10.8881 17 10.75 17H9.75C9.61193 17 9.5 16.8881 9.5 16.75L9.5 14.75C9.5 14.6119 9.38807 14.5 9.25 14.5L7.25 14.5C7.11193 14.5 7 14.3881 7 14.25V13.25Z"/>
</svg>
