<svg width="24" height="24" viewBox="0 0 24 24" fill="black" xmlns="http://www.w3.org/2000/svg">
<path fill-rule="evenodd" clip-rule="evenodd" d="M16.6813 5.09675C16.841 5.05112 17 5.17104 17 5.33714V15.5C17 16.8807 15.8807 18 14.5 18C13.1193 18 12 16.8807 12 15.5C12 14.1193 13.1193 13 14.5 13C14.7211 13 14.9354 13.0287 15.1395 13.0825C15.3138 13.1285 15.5 13.0062 15.5 12.826V10.3257C15.5 10.1596 15.341 10.0397 15.1813 10.0853L10.1813 11.5139C10.074 11.5446 10 11.6427 10 11.7543V17.5C10 18.8807 8.88071 20 7.5 20C6.11929 20 5 18.8807 5 17.5C5 16.1193 6.11929 15 7.5 15C7.72105 15 7.93541 15.0287 8.13954 15.0825C8.31381 15.1285 8.5 15.0062 8.5 14.826V7.62285C8.5 7.51123 8.57399 7.41313 8.68132 7.38247L16.6813 5.09675ZM15.3187 8.48608C15.426 8.45542 15.5 8.35732 15.5 8.2457V7.32573C15.5 7.15964 15.341 7.03972 15.1813 7.08535L10.1813 8.51392C10.074 8.54458 10 8.64268 10 8.7543V9.67427C10 9.84037 10.159 9.96028 10.3187 9.91465L15.3187 8.48608ZM14.5 14.5C15.0523 14.5 15.5 14.9477 15.5 15.5C15.5 16.0523 15.0523 16.5 14.5 16.5C13.9477 16.5 13.5 16.0523 13.5 15.5C13.5 14.9477 13.9477 14.5 14.5 14.5ZM7.5 16.5C8.05228 16.5 8.5 16.9477 8.5 17.5C8.5 18.0523 8.05228 18.5 7.5 18.5C6.94772 18.5 6.5 18.0523 6.5 17.5C6.5 16.9477 6.94772 16.5 7.5 16.5Z"/>
</svg>
