<svg width="24" height="24" viewBox="0 0 24 24" fill="black" xmlns="http://www.w3.org/2000/svg">
<path fill-rule="evenodd" clip-rule="evenodd" d="M19 12C19 15.866 15.866 19 12 19C8.13401 19 5 15.866 5 12C5 8.13401 8.13401 5 12 5C15.866 5 19 8.13401 19 12ZM9.5 10.25C9.5 10.1119 9.61193 10 9.75 10H10.75C10.8881 10 11 10.1119 11 10.25V13.75C11 13.8881 10.8881 14 10.75 14H9.75C9.61193 14 9.5 13.8881 9.5 13.75V10.25ZM14.5 10.25C14.5 10.1119 14.3881 10 14.25 10H13.25C13.1119 10 13 10.1119 13 10.25V13.75C13 13.8881 13.1119 14 13.25 14H14.25C14.3881 14 14.5 13.8881 14.5 13.75V10.25Z"/>
</svg>
