<svg width="24" height="24" viewBox="0 0 24 24" fill="black" xmlns="http://www.w3.org/2000/svg">
<path fill-rule="evenodd" clip-rule="evenodd" d="M14.75 6C13.7835 6 13 6.7835 13 7.75C13 8.7165 13.7835 9.5 14.75 9.5C15.3917 9.5 15.9528 9.15456 16.2574 8.63948C16.3065 8.55641 16.3931 8.5 16.4896 8.5L18.75 8.5C18.8881 8.5 19 8.38807 19 8.25V7.25C19 7.11193 18.8881 7 18.75 7H16.4896C16.3931 7 16.3065 6.94359 16.2574 6.86052C15.9528 6.34544 15.3918 6 14.75 6ZM12 7.75C12 7.89534 12.0113 8.03805 12.033 8.1773C12.0586 8.34114 11.9388 8.5 11.773 8.5L5.25 8.5C5.11193 8.5 5 8.38807 5 8.25V7.25C5 7.11193 5.11193 7 5.25 7L11.773 7C11.9388 7 12.0586 7.15887 12.033 7.3227C12.0113 7.46195 12 7.60466 12 7.75ZM8.75 13.5C9.7165 13.5 10.5 12.7165 10.5 11.75C10.5 10.7835 9.7165 10 8.75 10C8.10825 10 7.54718 10.3454 7.24259 10.8605C7.19346 10.9436 7.10691 11 7.01039 11H5.25C5.11193 11 5 11.1119 5 11.25V12.25C5 12.3881 5.11193 12.5 5.25 12.5H7.01039C7.10691 12.5 7.19346 12.5564 7.24259 12.6395C7.54718 13.1546 8.10825 13.5 8.75 13.5ZM11.5 11.75C11.5 11.6047 11.4887 11.4619 11.467 11.3227C11.4414 11.1589 11.5612 11 11.727 11H18.75C18.8881 11 19 11.1119 19 11.25V12.25C19 12.3881 18.8881 12.5 18.75 12.5H11.727C11.5612 12.5 11.4414 12.3411 11.467 12.1773C11.4887 12.0381 11.5 11.8953 11.5 11.75ZM11 15.75C11 14.7835 11.7835 14 12.75 14C13.3918 14 13.9528 14.3454 14.2574 14.8605C14.3065 14.9436 14.3931 15 14.4896 15H18.75C18.8881 15 19 15.1119 19 15.25V16.25C19 16.3881 18.8881 16.5 18.75 16.5H14.4896C14.3931 16.5 14.3065 16.5564 14.2574 16.6395C13.9528 17.1546 13.3918 17.5 12.75 17.5C11.7835 17.5 11 16.7165 11 15.75ZM9.773 16.5C9.93882 16.5 10.0586 16.3411 10.033 16.1773C10.0113 16.0381 10 15.8953 10 15.75C10 15.6047 10.0113 15.4619 10.033 15.3227C10.0586 15.1589 9.93882 15 9.773 15H5.25C5.11193 15 5 15.1119 5 15.25V16.25C5 16.3881 5.11193 16.5 5.25 16.5H9.773Z"/>
</svg>
