<svg width="24" height="24" viewBox="0 0 24 24" fill="black" xmlns="http://www.w3.org/2000/svg">
<path fill-rule="evenodd" clip-rule="evenodd" d="M6.94455 6.17677C6.84692 6.07914 6.68863 6.07914 6.591 6.17677L5.88389 6.88388C5.78626 6.98151 5.78626 7.1398 5.88389 7.23743L7.25111 8.60465L8.94223 10.2958L10.4235 11.777C10.476 11.8296 10.5013 11.9028 10.5002 11.9771C10.5001 11.9847 10.5 11.9924 10.5 12C10.5 12.8284 11.1716 13.5 12 13.5C12.0076 13.5 12.0153 13.4999 12.0229 13.4998C12.0972 13.4987 12.1704 13.524 12.223 13.5765L13.7042 15.0578L15.253 16.6066L16.844 18.1976C16.9417 18.2952 17.1 18.2952 17.1976 18.1976L17.9047 17.4905C18.0023 17.3928 18.0023 17.2346 17.9047 17.1369L16.6385 15.8707C16.5394 15.7716 16.5414 15.6107 16.639 15.51C16.6482 15.5004 16.6575 15.4909 16.6667 15.4812L19.8345 12.1729C19.927 12.0762 19.927 11.9238 19.8345 11.8271L16.6667 8.51876C14.4679 6.22242 11.1036 5.88514 8.56247 7.50693C8.46108 7.57164 8.32758 7.5598 8.24253 7.47475L6.94455 6.17677ZM10.1816 9.00885C10.0506 9.08868 10.0368 9.26904 10.1453 9.37754L11.2738 10.506C11.3468 10.579 11.4566 10.5976 11.5551 10.5671C11.6957 10.5235 11.8451 10.5 12 10.5C12.8284 10.5 13.5 11.1716 13.5 12C13.5 12.1549 13.4765 12.3043 13.4329 12.4449C13.4024 12.5435 13.421 12.6532 13.494 12.7262L14.6225 13.8547C14.731 13.9632 14.9113 13.9494 14.9912 13.8184C15.314 13.2884 15.5 12.6659 15.5 12C15.5 10.067 13.933 8.5 12 8.5C11.3341 8.5 10.7116 8.68599 10.1816 9.00885ZM6.74 9.50776C6.64087 9.40862 6.47961 9.41037 6.38265 9.51163L4.16556 11.8271C4.07299 11.9238 4.07299 12.0762 4.16556 12.1729L7.33334 15.4812C9.12124 17.3485 11.6798 17.9204 13.9397 17.197C14.1118 17.1419 14.1579 16.9257 14.0302 16.7979L12.7624 15.5301C12.7037 15.4714 12.6197 15.4463 12.5377 15.459C12.3624 15.486 12.1828 15.5 12 15.5C10.067 15.5 8.50001 13.933 8.50001 12C8.50001 11.8172 8.51403 11.6376 8.54105 11.4623C8.5537 11.3803 8.52859 11.2963 8.46988 11.2376L6.74 9.50776Z"/>
</svg>
