<svg width="165" height="32" viewBox="0 0 165 32" fill="none" xmlns="http://www.w3.org/2000/svg">
<path d="M160.723 0.473633V17.4816H160.689L160.571 16.6632C160.187 14.351 159.727 11.9358 159.311 9.87581L157.299 0.473633H152.876V31.2589H156.946V14.1218H156.98L157.142 14.9508L160.9 31.2589H164.783V0.473633H160.723Z" fill="#1B2128"/>
<path d="M143.571 15.0562L142.382 15.056V5.74038L143.525 5.74101H143.529C145.028 5.74101 146.278 6.78147 146.278 10.3921C146.278 13.9984 145.028 15.0562 143.571 15.0562ZM147.856 18.3907C149.647 17.1827 150.79 14.4747 150.79 10.2672C150.79 3.18517 147.856 0.477295 143.606 0.477295H137.619V31.3049H142.368V20.1403H143.523L146.231 31.3049L150.776 31.3053L147.539 18.5459L147.541 18.5454C147.752 18.4689 147.856 18.3907 147.856 18.3907Z" fill="#1B2128"/>
<path d="M124.363 26.4868C120.891 26.4868 118.968 22.6873 118.968 15.8336C118.968 8.90732 120.817 5.56488 124.289 5.56488C127.724 5.56488 129.573 8.90732 129.573 15.8336C129.573 22.674 127.798 26.4868 124.363 26.4868ZM124.289 0.0748901C118.251 0.0748901 113.193 4.64162 113.193 15.8336C113.193 27.0252 118.324 31.9766 124.363 31.9766C130.364 31.9766 135.348 27.0252 135.348 15.8336C135.348 4.64162 130.291 0.0748901 124.289 0.0748901Z" fill="#1B2128"/>
<path d="M104.428 12.5406H95.2211V0.473145H88.8891V31.3052H95.2211V17.7998H104.428V31.3052H110.76V0.473145H104.428V12.5406Z" fill="#1B2128"/>
<path d="M78.403 12.5374H67.2237V0.473389H60.9084V31.3053H67.2237V17.7997H78.403V31.3053H84.718V0.473389H78.403V12.5374Z" fill="#1B2128"/>
<path d="M50.4419 13.4747C50.3863 13.4475 50.0295 13.2727 50.0295 13.2727C49.9691 13.2431 49.9083 13.2132 49.8487 13.1838C47.4299 11.932 45.4059 10.7627 45.4059 8.30095C45.4059 6.54901 46.4768 5.21515 48.4193 5.21515C50.6914 5.21515 52.1942 6.96697 53.3302 9.55383L57.6248 6.90227L57.6252 6.90252L57.7635 6.81786C56.1106 2.92652 53.2931 0.000635242 48.663 0.000635242L48.6696 0.00559304C48.622 0.00495683 48.5772 0 48.5292 0C43.5818 0 39.5999 3.44872 39.6121 8.5801C39.6255 14.1964 44.278 16.7717 47.833 18.4822C50.3984 19.734 52.634 20.9021 52.634 23.4471C52.634 25.533 51.3879 26.9517 49.0424 26.9517C46.4037 26.9517 44.5345 24.7403 43.3617 22.0702L38.854 24.657C40.6865 28.9958 43.7282 32 49.0424 32C49.1191 32 49.1936 31.9964 49.2694 31.9952L49.2682 31.9966C55.1686 31.9966 58.6143 27.9377 58.6143 23.2648C58.6143 17.2405 54.0218 15.2176 50.4419 13.4747Z" fill="#1B2128"/>
<path d="M29.5274 15.0541H27.7916V5.73912H29.486C30.985 5.73912 32.2345 6.77946 32.2345 10.39C32.2345 13.9962 30.985 15.0541 29.5274 15.0541ZM37.5007 10.2629C37.5007 3.18137 34.2155 0.473755 29.9742 0.473755H22.8504V31.3016H27.7916V20.1351H29.7862L32.5842 31.3016H37.8763L34.5899 18.3856C36.3777 17.1776 37.5007 14.4701 37.5007 10.2629Z" fill="#1B2128"/>
<path d="M15.2429 0.473633H19.9431V31.3039H15.2429V0.473633Z" fill="#1B2128"/>
<path d="M7.75206 12.5557H4.06423V0.473389H0V31.3052H4.06423V17.7997H7.75206V31.3052H12.2473V0.473389H7.75206V12.5557Z" fill="#1B2128"/>
</svg>
