<svg width="123" height="32" viewBox="0 0 123 32" fill="none" xmlns="http://www.w3.org/2000/svg">
<path d="M19.7863 4.29107C18.7644 4.29107 17.7425 4.29107 16.7205 4.29107C16.4525 4.29107 16.2274 4.15528 15.9916 4.05881C14.9125 3.60501 13.8405 3.13335 12.6935 2.85821C11.8002 2.64382 10.8998 2.51161 9.97789 2.59379C9.63487 2.62595 9.29541 2.67598 8.98454 2.82963C8.55933 3.03687 8.39139 3.46566 8.54504 3.90873C8.64866 4.20531 8.83447 4.38754 9.17392 4.3804C9.51695 4.37325 9.85998 4.3804 10.203 4.38397C10.7175 4.38397 11.2321 4.39112 11.7466 4.38754C12.3791 4.3804 12.472 4.43757 12.2898 5.05216C11.886 6.41712 12.1647 7.66059 13.0687 8.74327C13.4939 9.25067 13.7762 9.84739 14.18 10.3655C14.28 10.4941 14.3229 10.6728 14.3765 10.8336C14.6159 11.5268 14.548 11.7198 13.8977 12.0664C13.2652 12.4058 12.5935 12.6452 11.911 12.856C10.4638 13.3027 8.9774 13.5921 7.49809 13.9065C7.02286 14.0066 6.55119 14.1245 6.09025 14.2674C5.67933 14.3961 5.30772 14.6176 5.00042 14.9249C4.54305 15.3859 4.46087 15.8968 4.74315 16.4935C4.94683 16.9223 5.28271 17.2296 5.6436 17.5083C6.25462 17.98 6.90494 18.3909 7.59814 18.7375C8.89164 19.3807 10.2637 19.7452 11.6859 19.9488C13.694 20.2383 15.7022 20.5098 17.7067 20.8207C18.5786 20.9565 19.4469 21.153 20.308 21.3531C20.6653 21.4353 21.0119 21.5889 21.3514 21.7354C21.5908 21.8355 21.7945 21.9999 21.9303 22.2285C22.0589 22.4394 22.0839 22.6502 21.9374 22.8717C21.7444 23.1611 21.4907 23.3898 21.2049 23.5828C20.4688 24.0759 19.7113 24.5404 18.893 24.8834C16.9349 25.6981 14.9375 26.3877 12.8329 26.6879C9.8707 27.1095 6.91209 27.1667 3.98206 26.4306C3.53898 26.3199 3.09948 26.1912 2.68856 25.984C2.34553 25.8089 2.22047 25.5588 2.2705 25.2193C2.39556 24.3868 3.58186 22.7788 4.82891 22.7609C5.02901 22.7574 5.22911 22.7645 5.42563 22.7967C5.81511 22.8681 6.10812 23.0754 6.26891 23.447C6.32608 23.5792 6.37968 23.7114 6.43328 23.8436C6.69412 24.4582 7.15864 24.8584 7.77323 25.0907C8.2842 25.2836 8.82375 25.3622 9.36688 25.4015C11.4 25.5373 13.351 25.1907 15.2198 24.3832C15.6914 24.1795 16.156 23.9508 16.5383 23.5971C16.8277 23.3291 16.8099 23.0397 16.5061 22.8002C16.206 22.5644 15.8451 22.4679 15.4878 22.3643C14.5516 22.0999 13.594 21.9355 12.6364 21.7855C10.9141 21.5139 9.20251 21.2102 7.50881 20.7885C6.19387 20.4634 4.95397 19.981 3.82127 19.227C3.13164 18.7697 2.40985 18.3552 1.72737 17.8871C1.33075 17.6155 0.955559 17.2975 0.612532 16.9545C-0.330793 16.0076 -0.166426 14.6712 0.980572 13.9852C1.88816 13.442 2.80648 12.9203 3.73551 12.4165C4.30008 12.1092 4.76102 11.6983 5.17551 11.2195C5.62573 10.7014 6.06524 10.1726 6.56191 9.70446C7.07645 9.21851 7.33372 8.62893 7.34802 7.95717C7.37303 6.89236 7.54097 5.85613 7.84826 4.83776C7.87328 4.75558 7.88042 4.66982 7.884 4.58407C7.88757 4.45901 7.82325 4.35538 7.69819 4.34109C7.47308 4.31608 7.24439 4.30893 7.01571 4.30536C6.2439 4.30178 5.47209 4.28749 4.70027 4.30536C4.34295 4.31608 4.1107 4.16958 3.9106 3.89444C2.94583 2.55092 3.25313 1.72908 4.4573 0.967988C5.06474 0.582082 5.74365 0.349824 6.44757 0.206896C7.78037 -0.0610939 9.11675 -0.0468011 10.4567 0.124713C11.1928 0.217616 11.9253 0.349824 12.6399 0.549924C13.0473 0.664266 13.401 0.63568 13.7691 0.37841C14.3658 -0.0396547 14.9589 0.0854074 15.4949 0.539204C15.7129 0.72501 15.9308 0.910817 16.1202 1.12164C16.9492 2.04352 17.939 2.76888 18.9431 3.47638C19.2432 3.68719 19.5398 3.90516 19.8399 4.11598C19.8221 4.17672 19.8042 4.23389 19.7863 4.29107Z" fill="#1B2128"/>
<path d="M50.9053 31.987C50.0478 31.987 49.1902 31.9905 48.3326 31.9834C48.104 31.9834 47.8753 31.9762 47.6502 31.9369C47.2643 31.8726 46.9641 31.6654 46.7569 31.3331C46.5889 31.0615 46.6425 30.7506 46.9177 30.5898C47.1606 30.4469 47.4286 30.3361 47.6966 30.2468C48.2112 30.0789 48.5399 29.7394 48.6113 29.2142C48.765 28.0636 49.2974 27.1167 50.0799 26.2806C50.2514 26.0948 50.3765 25.8625 50.5123 25.6445C50.5373 25.6052 50.5337 25.523 50.5087 25.4837C50.4801 25.4444 50.4051 25.4158 50.3586 25.423C50.0799 25.4802 49.8012 25.5338 49.5297 25.6195C48.8508 25.8339 48.1754 26.0769 47.4965 26.2913C46.0958 26.7272 44.6701 26.9988 43.1944 26.9166C42.4726 26.8737 41.7794 26.7344 41.1255 26.4163C40.7074 26.2127 40.3537 25.9304 40.0714 25.5588C39.6533 25.0085 39.5604 24.4082 39.8642 23.79C40.1643 23.1754 40.5252 22.5894 41.0004 22.0856C41.3149 21.7533 41.6543 21.446 41.9902 21.1387C43.2158 20.0203 44.6773 19.4522 46.3138 19.2485C48.0897 19.027 49.8513 19.1627 51.6164 19.3414C51.7308 19.3521 51.8415 19.3736 51.9559 19.3914C52.8956 19.5701 53.8246 19.5987 54.7287 19.2163C54.7537 19.2056 54.7823 19.1985 54.8109 19.1913C56.0901 18.8697 56.7475 19.0806 57.723 20.3955C58.0232 20.7993 57.9874 21.2531 57.7838 21.6997C57.4693 22.3822 57.0512 22.9896 56.5045 23.5078C56.1722 23.8222 55.8542 24.1509 55.5255 24.4654C54.6894 25.2551 54.0498 26.2055 53.353 27.1095C53.0564 27.4919 52.9635 27.9278 53.0028 28.3995C53.0207 28.6282 53.0743 28.8497 53.11 29.0748C53.2101 29.6894 53.5066 30.1289 54.1462 30.3004C54.3928 30.3647 54.6322 30.4791 54.8502 30.6113C55.1968 30.8221 55.2361 31.1723 54.9716 31.4903C54.7823 31.719 54.5286 31.8619 54.2463 31.9155C53.9676 31.9691 53.6817 31.9905 53.3959 31.9941C52.5669 32.0048 51.7379 31.9977 50.9089 31.9977C50.9053 31.9941 50.9053 31.9905 50.9053 31.987ZM50.0228 20.0632C49.1509 20.056 48.4148 20.0632 47.6823 20.2347C46.4853 20.5134 45.6706 21.2674 45.0775 22.2893C44.8774 22.6323 44.7666 23.0218 44.7201 23.4256C44.6558 24.0009 44.8952 24.4225 45.3955 24.6976C45.6456 24.837 45.9172 24.9263 46.203 24.962C48.4363 25.2443 50.5159 24.8048 52.4132 23.5864C53.135 23.1219 53.5424 22.3893 53.8532 21.614C54.014 21.2138 53.8818 20.9136 53.4852 20.6778C53.1136 20.4562 52.7027 20.3383 52.281 20.2561C51.4914 20.0989 50.6945 20.0489 50.0228 20.0632Z" fill="#1B2128"/>
<path d="M63.5152 19.0877C64.3906 19.0162 65.1553 19.2699 65.8056 19.8523C66.4702 20.449 66.5738 21.0565 66.145 21.8426C65.9128 22.2678 65.6519 22.6787 65.4054 23.0932C65.3018 23.2647 65.191 23.4291 65.0909 23.6042C64.6586 24.3724 64.8122 24.7333 65.6877 24.9584C65.9628 25.0299 66.2487 25.0656 66.5309 25.0799C67.3063 25.1192 68.071 25.0013 68.8178 24.8012C70.0756 24.4653 71.2118 23.8865 72.2373 23.0825C72.7412 22.6859 73.1164 22.1856 73.3415 21.5853C73.5523 21.0136 73.3629 20.6384 72.7626 20.4884C72.3767 20.3919 71.9765 20.3597 71.5799 20.3025C71.3548 20.2704 71.1261 20.2597 70.901 20.2239C70.708 20.1918 70.5043 20.156 70.3936 19.9595C70.3221 19.8345 70.4901 19.6987 70.8938 19.6022C72.1444 19.3092 73.4094 19.0805 74.6993 19.0198C75.6069 18.9769 76.3823 19.2949 77.0362 19.9023C77.5972 20.4276 77.6901 20.9815 77.3577 21.6854C77.0612 22.3071 76.686 22.8788 76.1929 23.3684C75.9499 23.6113 75.7034 23.8507 75.489 24.1152C75.1567 24.5189 75.2353 24.7833 75.7105 24.9549C75.9499 25.0406 76.2 25.1049 76.4394 25.1907C76.5824 25.2443 76.6074 25.4372 76.5073 25.548C76.3465 25.7231 76.1357 25.8053 75.9285 25.9053C75.4068 26.1554 74.8386 26.2484 74.2848 26.3698C73.0306 26.645 71.7693 26.8844 70.4901 27.0309C70.1792 27.0666 69.8647 27.0809 69.5503 27.0702C69.268 27.0595 69.1358 26.8415 69.2609 26.5985C69.4038 26.3198 69.5825 26.0625 69.7504 25.7946C69.7969 25.7195 69.8219 25.6373 69.7504 25.573C69.7147 25.5409 69.6468 25.5337 69.5932 25.5373C69.3037 25.5659 69.0536 25.7124 68.7928 25.8267C67.3456 26.4663 65.8449 26.9022 64.2584 26.9952C63.4008 27.0452 62.5468 27.0309 61.7143 26.7736C61.3534 26.6628 61.0211 26.502 60.7245 26.2769C60.0706 25.7838 59.9098 25.1014 60.2993 24.3867C60.4351 24.1402 60.6209 23.9151 60.8102 23.7007C61.2498 23.2076 61.6428 22.6859 61.9608 22.107C61.9894 22.057 62.0251 22.0105 62.0537 21.9641C62.5611 21.0529 62.336 20.5991 61.2819 20.4383C60.8317 20.3669 60.3743 20.324 59.9241 20.2632C59.724 20.2382 59.5275 20.2061 59.356 20.0882C59.3167 20.0596 59.2738 20.006 59.2702 19.9559C59.2666 19.9095 59.2952 19.838 59.3309 19.8166C59.4274 19.7558 59.531 19.6987 59.6382 19.6737C60.9103 19.3914 62.2038 19.1698 63.5152 19.0877Z" fill="#1B2128"/>
<path d="M115.637 21.6783C116.406 21.714 117.178 21.7497 117.946 21.7891C118.214 21.8033 118.457 21.7855 118.582 21.4853C118.718 21.1566 118.671 20.8707 118.425 20.6206C118.221 20.4134 117.964 20.2812 117.689 20.2025C115.991 19.7094 114.315 19.613 112.711 20.5277C111.914 20.9815 111.06 21.1352 110.156 21.0958C109.81 21.0816 109.474 21.0137 109.17 20.8386C108.713 20.5777 108.68 20.1132 109.099 19.7988C109.42 19.5558 109.795 19.4093 110.174 19.2771C111.071 18.9626 112.007 18.8412 112.95 18.7983C115.016 18.7054 117.056 18.8983 119.071 19.3628C119.682 19.5022 120.293 19.6594 120.89 19.8452C121.24 19.956 121.58 20.1204 121.905 20.2955C122.416 20.5742 122.698 21.0565 122.377 21.7462C122.073 22.3965 121.676 22.9861 121.147 23.4827C120.897 23.715 120.647 23.9544 120.426 24.2117C120.297 24.3582 120.204 24.544 120.133 24.7262C120.075 24.8692 120.133 25.0264 120.283 25.08C120.551 25.1729 120.833 25.23 121.104 25.3087C121.265 25.3551 121.319 25.5052 121.226 25.641C121.047 25.9018 120.851 26.1341 120.547 26.2734C119.257 26.863 117.903 27.1631 116.484 27.1989C115.952 27.2132 115.545 27.0166 115.298 26.5235C115.223 26.3735 115.109 26.2377 115.001 26.1055C114.884 25.959 114.719 25.9054 114.544 25.9483C114.294 26.009 114.051 26.084 113.804 26.1662C112.747 26.5128 111.675 26.8094 110.578 27.0131C109.531 27.206 108.477 27.2167 107.423 27.0988C106.819 27.0309 106.254 26.8416 105.772 26.4521C104.979 25.8089 104.904 25.0014 105.6 24.226C106.061 23.7114 106.622 23.322 107.24 23.0075C108.298 22.4715 109.434 22.2071 110.596 22.032C112.268 21.7676 113.951 21.6676 115.637 21.6783ZM115.83 22.4144C114.691 22.4322 113.694 22.4429 112.711 22.6538C112.093 22.786 111.5 22.9718 110.957 23.3077C110.664 23.4899 110.392 23.6971 110.195 23.9866C109.949 24.3475 110.02 24.6941 110.385 24.9442C110.699 25.1586 111.057 25.2515 111.428 25.2872C112.196 25.3551 112.968 25.348 113.733 25.2693C115.291 25.1157 116.52 24.3367 117.56 23.2183C117.656 23.1147 117.739 22.9968 117.817 22.8789C117.931 22.7038 117.853 22.5216 117.649 22.5073C117.002 22.4608 116.345 22.4358 115.83 22.4144Z" fill="#1B2128"/>
<path d="M52.0559 7.82137C53.2458 7.88211 54.5857 7.96787 55.8185 8.59318C56.1472 8.76112 56.4616 8.7647 56.8047 8.63249C57.4443 8.38594 58.0874 8.15725 58.7342 7.92499C59.0308 7.8178 59.3381 7.74991 59.6561 7.77135C59.8848 7.78564 60.0134 7.93571 60.0063 8.1644C59.9955 8.49671 59.8669 8.77899 59.6382 9.00767C59.4774 9.16847 59.2988 9.31497 59.1094 9.44003C58.2054 10.0403 57.3156 10.6656 56.3866 11.2159C55.0574 12.002 53.9604 13.0168 53.1386 14.3175C52.9277 14.6533 52.6705 14.782 52.2881 14.757C51.77 14.7212 51.2662 14.6105 50.7838 14.4461C50.0263 14.1924 49.2902 14.2103 48.5113 14.3568C46.5925 14.7176 44.6558 14.7927 42.7155 14.5604C42.0366 14.4782 41.3684 14.3246 40.7145 14.1031C40.3858 13.9923 40.0785 13.8458 39.8284 13.5992C39.5568 13.3277 39.5032 12.9954 39.6855 12.6631C39.8391 12.3808 40.0606 12.1521 40.3251 11.9841C40.7074 11.7376 41.0969 11.4946 41.5078 11.2945C42.6369 10.7478 43.7661 10.1975 44.9488 9.76876C45.9957 9.39001 47.0248 8.96837 48.061 8.55745C49.2938 8.07507 50.5802 7.86068 52.0559 7.82137ZM46.0743 13.5492C46.6103 13.4956 47.0963 13.4777 47.5715 13.392C48.9615 13.1383 50.0835 12.3593 51.1411 11.4768C51.352 11.3017 51.4949 11.0337 51.645 10.7943C51.7557 10.612 51.6736 10.3941 51.4985 10.2762C51.352 10.1761 51.1876 10.1404 51.0161 10.1261C50.305 10.0653 49.5939 10.051 48.89 10.194C47.5143 10.4798 46.2423 11.0515 44.9667 11.6197C44.763 11.709 44.5736 11.8555 44.4021 11.9984C44.2735 12.1056 44.1627 12.245 44.0805 12.3879C43.8554 12.7774 43.9662 13.124 44.3664 13.2991C44.545 13.3777 44.7451 13.4349 44.9381 13.4599C45.3311 13.5099 45.7277 13.5242 46.0743 13.5492Z" fill="#1B2128"/>
<path d="M87.3949 18.9448C89.303 18.9591 90.9681 19.1985 92.6225 19.5129C93.6051 19.6987 94.577 19.9202 95.5311 20.2204C95.9098 20.3419 96.2779 20.4955 96.6495 20.6492C96.8889 20.7492 97.0961 20.9029 97.2748 21.0923C97.6035 21.4389 97.6571 21.7426 97.4463 22.1821C97.2962 22.493 97.1033 22.7788 96.8174 22.9825C96.5637 23.1647 96.31 23.3541 96.0349 23.5042C93.4157 24.9263 90.6644 26.0197 87.7629 26.72C86.398 27.0488 85.0044 27.1846 83.6002 27.0988C82.6819 27.0416 81.7886 26.8737 80.9453 26.4914C80.3879 26.2412 79.9198 25.8803 79.5267 25.4123C79.0408 24.8334 78.9264 24.2009 79.2266 23.5006C79.5231 22.8145 79.8983 22.1857 80.4593 21.6675C81.6957 20.5241 83.0713 19.6308 84.7257 19.2413C85.6726 19.0162 86.6374 18.9126 87.3949 18.9448ZM86.5695 25.5159C87.084 25.4623 87.595 25.448 88.1024 25.3408C89.5174 25.0335 90.7859 24.401 91.99 23.6292C92.2509 23.4613 92.4831 23.2398 92.694 23.0111C93.1692 22.5001 93.3336 21.6568 92.5082 21.0994C92.2259 20.91 91.9222 20.7421 91.6041 20.6242C90.082 20.056 88.5062 19.8809 86.8947 20.0918C86.1086 20.1954 85.4439 20.542 84.9115 21.1637C84.3541 21.8176 84.1183 22.5894 83.9218 23.4005C83.6895 24.351 84.3255 25.1014 85.0509 25.3336C85.5547 25.4909 86.0657 25.4837 86.5695 25.5159Z" fill="#1B2128"/>
<path d="M91.4469 7.89644C92.6225 7.90358 93.7873 8.00363 94.8522 8.56462C95.0523 8.66825 95.2452 8.79331 95.4167 8.93981C95.6847 9.16849 95.7347 9.46864 95.6204 9.79738C95.5061 10.1261 95.2988 10.3977 95.0523 10.6407C93.9839 11.684 92.7547 12.5094 91.4862 13.2812C90.9717 13.5957 90.3928 13.7636 89.8104 13.9137C88.4275 14.2675 87.034 14.5676 85.6119 14.6927C83.8038 14.8535 82.0244 14.6748 80.2771 14.1853C79.9197 14.0852 79.5767 13.9351 79.2873 13.6922C78.9014 13.3706 78.8514 13.0597 79.1194 12.6452C79.4052 12.2021 79.7983 11.8698 80.2664 11.6447C81.3991 11.1052 82.4889 10.4834 83.6716 10.0475C84.8222 9.62229 85.9656 9.18636 87.109 8.74328C88.5026 8.20373 89.939 7.875 91.4469 7.89644ZM84.5435 13.4135C84.6399 13.4063 84.7829 13.3956 84.9258 13.3777C86.3408 13.1991 87.4842 12.4451 88.5776 11.6054C88.8599 11.391 88.9707 11.048 89.1065 10.7371C89.1779 10.5692 89.0814 10.3977 88.8885 10.3477C88.7527 10.3119 88.6098 10.2833 88.4669 10.2798C87.8594 10.269 87.2734 10.3834 86.7088 10.5978C86.0942 10.83 85.4868 11.0766 84.8722 11.3053C84.4934 11.4446 84.1397 11.6233 83.811 11.8555C83.5787 12.0199 83.3643 12.2129 83.2571 12.4916C83.1213 12.8382 83.2357 13.1169 83.5787 13.2598C83.8681 13.3777 84.1826 13.4099 84.5435 13.4135Z" fill="#1B2128"/>
<path d="M33.704 22.3429C32.2175 22.3429 30.7347 22.3393 29.2482 22.3465C28.9052 22.3465 28.5622 22.3679 28.2227 22.4001C27.4044 22.4715 27.0721 23.665 27.5938 24.2117C27.9404 24.5726 28.3692 24.7906 28.8444 24.9192C29.3411 25.055 29.8521 25.1157 30.3666 25.13C31.7495 25.1765 33.1001 24.9907 34.4365 24.6512C35.2941 24.4332 36.1516 24.2224 37.0128 24.0187C37.2343 23.9651 37.463 23.9294 37.6845 24.0295C37.7346 24.0509 37.7882 24.0902 37.8096 24.1367C37.8489 24.2153 37.8382 24.3046 37.7667 24.3653C37.681 24.4404 37.5916 24.5154 37.4916 24.5654C37.2379 24.6977 36.9878 24.8406 36.7198 24.9335C35.0761 25.5088 33.4396 26.1055 31.7459 26.5164C30.2666 26.8773 28.7623 27.0202 27.2401 26.9452C26.261 26.8952 25.3177 26.6986 24.428 26.2699C23.9885 26.0555 23.574 25.8018 23.2452 25.4337C22.7557 24.8835 22.5592 24.2724 22.8415 23.5399C23.088 22.8896 23.4167 22.3108 23.9313 21.8248C25.5499 20.2883 27.4723 19.4486 29.6913 19.2878C32.3605 19.0949 34.9975 19.3236 37.5952 19.9703C38.1205 20.1025 38.6314 20.2883 39.1424 20.4706C39.4104 20.567 39.6569 20.7135 39.8642 20.9208C40.2215 21.2852 40.1751 21.8177 39.7499 22.0964C39.5283 22.2393 39.2782 22.3 39.0173 22.3072C38.6171 22.3179 38.2169 22.3358 37.8167 22.3358C36.4446 22.3393 35.0761 22.3358 33.704 22.3358C33.704 22.3393 33.704 22.3429 33.704 22.3429ZM32.3247 21.7569C33.2073 21.7569 34.0935 21.7641 34.9761 21.7569C35.3155 21.7533 35.6621 21.7319 35.998 21.6819C36.3446 21.6283 36.4589 21.2995 36.2267 21.0494C36.1123 20.9279 35.9766 20.8136 35.8265 20.7385C35.5728 20.6135 35.3048 20.5027 35.0332 20.4277C33.6147 20.0275 32.1639 19.9775 30.7061 20.1168C30.2237 20.1633 29.7592 20.3098 29.3197 20.5349C29.0088 20.6957 28.7515 20.9136 28.5836 21.2245C28.4407 21.4853 28.5229 21.6747 28.8159 21.7105C29.0696 21.7426 29.3268 21.7533 29.5841 21.7569C30.4988 21.7569 31.4136 21.7569 32.3247 21.7569Z" fill="#1B2128"/>
<path d="M111.071 14.7748C109.506 14.7891 108.062 14.6248 106.64 14.2603C106.276 14.1674 105.926 14.0566 105.629 13.8172C105.357 13.6028 105.307 13.367 105.461 13.0633C105.633 12.7274 105.886 12.4558 106.179 12.2236C106.426 12.027 106.672 11.8269 106.944 11.6769C108.166 11.0015 109.341 10.2297 110.667 9.75449C111.5 9.45792 112.325 9.12561 113.147 8.80402C114.901 8.11082 116.727 7.85712 118.607 7.92144C119.468 7.95002 120.318 8.02506 121.14 8.29662C121.523 8.42169 121.891 8.57891 122.176 8.87548C122.402 9.11131 122.448 9.30069 122.291 9.56868C122.162 9.78665 122.008 10.0046 121.826 10.1761C121.537 10.4513 121.226 10.705 120.904 10.9372C119.961 11.6304 118.978 12.27 118.103 13.0561C117.649 13.4635 117.102 13.71 116.527 13.903C114.723 14.514 112.872 14.8034 111.071 14.7748ZM111.932 13.5707C112.55 13.5385 113.215 13.4027 113.812 13.0311C114.562 12.5666 115.291 12.0699 115.959 11.4875C116.259 11.2266 116.538 10.9372 116.806 10.6442C116.981 10.4513 116.888 10.169 116.638 10.1082C116.474 10.0689 116.299 10.0332 116.134 10.0475C115.337 10.119 114.551 10.2726 113.833 10.6335C113.426 10.8372 113.008 11.0158 112.586 11.1838C112.136 11.3589 111.689 11.5554 111.292 11.8341C110.96 12.0699 110.692 12.3558 110.567 12.756C110.481 13.0383 110.585 13.2741 110.86 13.3777C111.178 13.4992 111.514 13.56 111.932 13.5707Z" fill="#1B2128"/>
<path d="M27.9368 14.6748C26.6505 14.6534 25.3713 14.5891 24.1171 14.2603C23.6168 14.1317 23.1273 13.978 22.7164 13.6529C22.2447 13.2813 22.1947 12.8632 22.5877 12.4058C22.9844 11.9449 23.4953 11.6233 24.0456 11.3768C25.3212 10.805 26.579 10.2012 27.9047 9.73665C28.8194 9.41864 29.7163 9.03988 30.6203 8.6897C32.6284 7.91075 34.6866 7.57844 36.8305 7.97149C37.3665 8.06797 37.8882 8.21804 38.367 8.47888C38.5421 8.57179 38.7136 8.68256 38.8601 8.81477C39.1745 9.09348 39.2246 9.35432 39.0602 9.73665C38.8744 10.1619 38.5921 10.5228 38.2455 10.8265C37.2593 11.6948 36.1731 12.438 35.0725 13.1562C34.6652 13.4206 34.2149 13.6064 33.7469 13.7494C31.8531 14.3246 29.9271 14.6963 27.9368 14.6748ZM28.2298 13.6386C28.6586 13.6136 29.0803 13.5886 29.5055 13.5135C30.9526 13.2598 32.1532 12.5095 33.2859 11.6304C33.536 11.4375 33.7218 11.1838 33.8862 10.9158C34.1613 10.4727 34.047 10.144 33.5575 10.0154C33.3931 9.97248 33.2216 9.96176 33.0501 9.94747C32.4212 9.90459 31.7995 9.97248 31.1849 10.1083C29.8128 10.4156 28.555 11.0194 27.2937 11.6162C27.04 11.7376 26.8113 11.9199 26.6005 12.1057C26.4575 12.2343 26.3396 12.4094 26.2539 12.5845C26.1181 12.8632 26.2217 13.1598 26.4825 13.3277C26.7041 13.4671 26.9506 13.5421 27.2043 13.5707C27.5474 13.6029 27.8868 13.6136 28.2298 13.6386Z" fill="#1B2128"/>
<path d="M98.3968 26.9237C97.5999 26.8773 96.7995 26.8308 96.0027 26.7808C95.7454 26.7665 95.4917 26.7272 95.2595 26.5986C95.0058 26.4592 94.9665 26.1698 95.1701 25.9518C95.3131 25.8017 95.4846 25.7017 95.6775 25.6445C95.9777 25.5588 96.285 25.4873 96.5923 25.423C97.189 25.3015 97.7464 25.0871 98.2217 24.6976C98.9077 24.1366 99.558 23.5328 100.105 22.8288C100.387 22.4679 100.626 22.0749 100.773 21.639C100.969 21.0637 100.73 20.6027 100.133 20.467C99.6903 20.3633 99.2293 20.324 98.7791 20.2597C98.554 20.2275 98.3181 20.2133 98.1216 20.0846C98.0609 20.0417 97.9894 19.956 97.9894 19.8917C97.993 19.8238 98.0645 19.7416 98.1288 19.7023C98.2217 19.6415 98.336 19.6022 98.4432 19.5737C99.4366 19.3128 100.433 19.0591 101.455 18.9126C102.588 18.7482 103.539 19.1306 104.368 19.8702C105.061 20.4884 105.15 21.0244 104.689 21.8498C104.31 22.5287 103.832 23.1326 103.253 23.6543C102.913 23.9615 102.588 24.2831 102.356 24.6869C102.174 25.0049 102.249 25.2157 102.592 25.3694C102.774 25.4516 102.967 25.5087 103.146 25.5945C103.324 25.6803 103.353 25.8696 103.242 26.0269C103.106 26.2234 102.917 26.3484 102.71 26.4449C102.317 26.6236 101.906 26.7272 101.473 26.7701C100.455 26.8701 99.4294 26.9273 98.3968 26.9237Z" fill="#1B2128"/>
<path d="M71.4655 14.7677C70.4758 14.6319 69.486 14.4997 68.4998 14.3532C68.0496 14.2853 67.6029 14.1817 67.1563 14.0816C66.9919 14.0423 66.8347 13.9673 66.6846 13.8887C66.556 13.8244 66.5202 13.6207 66.6238 13.5206C66.7632 13.3813 66.9133 13.2455 67.0776 13.1383C67.5565 12.8239 68.0924 12.6166 68.6141 12.3915C68.8499 12.2915 69.0822 12.1843 69.3145 12.0699C69.6075 11.9234 69.8362 11.7197 69.8683 11.3624C69.8933 11.0837 70.0827 10.9086 70.2649 10.7228C70.7723 10.1976 71.3833 9.82952 72.048 9.56153C73.9096 8.81831 75.8356 8.28947 77.8151 7.96789C78.2082 7.90357 78.6084 7.86784 79.0086 7.92501C79.3266 7.97146 79.4981 8.21086 79.4588 8.53245C79.4231 8.80044 79.2908 9.02198 79.0836 9.18635C78.7263 9.46863 78.3654 9.74734 77.9866 10.001C77.0397 10.6371 76.0821 11.2624 75.1245 11.8841C74.492 12.295 73.9811 12.8239 73.5201 13.4134C73.3093 13.6814 73.0628 13.9244 72.8376 14.1817C72.4732 14.5926 72.0301 14.807 71.4655 14.7677Z" fill="#1B2128"/>
<path d="M60.0885 14.7106C59.3917 14.6177 58.4269 14.4962 57.4657 14.3532C56.9869 14.2818 56.5117 14.1817 56.0365 14.0781C55.8721 14.0424 55.7113 13.978 55.5577 13.9066C55.3933 13.8315 55.3647 13.5993 55.5076 13.4778C55.6791 13.3313 55.8614 13.1848 56.065 13.0883C56.501 12.8775 56.9548 12.7024 57.4014 12.5095C57.7409 12.363 58.0875 12.2308 58.4198 12.0664C58.7414 11.9092 59.0022 11.7019 58.9129 11.2696C58.8664 11.0552 58.9951 10.8908 59.1344 10.7372C59.5453 10.2869 60.0349 9.94748 60.5816 9.68663C61.3855 9.3043 62.2288 9.03988 63.0792 8.79333C64.3978 8.41457 65.7198 8.05725 67.0884 7.9036C67.3421 7.87502 67.6029 7.85001 67.8566 7.87502C68.2782 7.9179 68.4819 8.28951 68.339 8.69328C68.2497 8.94698 68.071 9.13279 67.8638 9.28643C67.5672 9.50797 67.2635 9.72236 66.9526 9.92604C66.07 10.5049 65.1803 11.0766 64.2941 11.6519C63.5223 12.1557 62.8363 12.7489 62.2931 13.5028C62.1109 13.7565 61.8858 13.9816 61.6643 14.2032C61.2247 14.6391 60.9746 14.7284 60.0885 14.7106Z" fill="#1B2128"/>
<path d="M98.8863 14.7677C98.5218 14.7141 98.1538 14.6676 97.7893 14.6033C96.9461 14.4532 96.1064 14.2924 95.2667 14.1316C95.0701 14.0923 94.8772 14.0387 94.6914 13.9708C94.234 13.8029 94.1804 13.5599 94.5163 13.2205C94.8414 12.8953 95.2095 12.6237 95.6061 12.3986C96.1528 12.0877 96.6352 11.6983 97.0961 11.2623C97.8001 10.5942 98.604 10.0475 99.5259 9.70085C101.209 9.06125 102.938 8.58244 104.686 8.15008C104.936 8.08934 105.186 8.03931 105.44 8.00358C105.693 7.96785 105.951 7.94641 106.204 7.93569C106.436 7.92854 106.672 7.95713 106.787 8.20368C106.901 8.45738 106.887 8.71822 106.715 8.93261C106.558 9.12914 106.372 9.31852 106.165 9.46145C105.393 9.99743 104.607 10.5191 103.824 11.0408C103.421 11.3088 102.999 11.5518 102.602 11.8269C102.084 12.1842 101.616 12.5951 101.209 13.0847C100.862 13.5027 100.487 13.8922 100.119 14.2888C99.7868 14.639 99.3794 14.8105 98.8863 14.7677Z" fill="#1B2128"/>
<path d="M100.701 4.29465C100.473 4.29465 100.244 4.2875 100.015 4.29465C98.4253 4.34825 97.2426 3.53713 96.2171 2.45088C95.6776 1.88274 95.7776 1.22884 96.3922 0.742888C96.9175 0.328397 97.5356 0.23192 98.1752 0.299811C98.872 0.371275 99.5044 0.628546 100.051 1.0752C100.855 1.72552 101.541 2.48661 102.159 3.31559C102.299 3.5014 102.399 3.70507 102.434 3.93733C102.467 4.13386 102.37 4.27678 102.159 4.28036C101.673 4.29108 101.187 4.28393 100.701 4.28393C100.701 4.2875 100.701 4.29108 100.701 4.29465Z" fill="#1B2128"/>
<path d="M18.4178 18.6589C17.2923 18.5088 16.1917 18.1587 15.1984 17.5048C14.9125 17.3154 14.6481 17.101 14.4623 16.808C14.2443 16.465 14.2729 16.1648 14.5409 15.879C14.8768 15.5252 15.3091 15.3966 15.7736 15.4002C16.0666 15.4037 16.3597 15.5359 16.4633 15.8254C16.8528 16.9116 17.7246 17.5477 18.6072 18.1801C18.6536 18.2123 18.7072 18.2444 18.7358 18.2909C18.7751 18.3588 18.8216 18.441 18.8144 18.516C18.8073 18.6053 18.7215 18.6518 18.6286 18.6589C18.575 18.6625 18.5179 18.6589 18.4178 18.6589Z" fill="#1B2128"/>
<path d="M22.2554 4.38753C22.6842 4.38753 23.1094 4.37681 23.5381 4.3911C23.9776 4.40539 24.0563 4.49115 24.1277 4.94852C24.1742 5.25939 24.1992 5.57383 24.142 5.8847C24.0384 6.48142 23.5632 6.81373 22.9629 6.72797C22.6055 6.67795 22.3268 6.49214 22.0731 6.25274C21.5729 5.78107 21.2191 5.18792 20.7796 4.66624C20.7046 4.57691 20.7796 4.40539 20.8904 4.40539C21.3442 4.39825 21.8016 4.40182 22.2554 4.40182C22.2554 4.40182 22.2554 4.39467 22.2554 4.38753Z" fill="#1B2128"/>
<path d="M103.717 4.41614C104.36 4.41614 105.004 4.41614 105.64 4.41614C105.711 4.59122 105.59 4.61624 105.49 4.63768C104.711 4.81991 104.443 4.79847 103.717 4.41614Z" fill="#1B2128"/>
</svg>
